<?xml version="1.0" standalone="no"?><!DOCTYPE svg PUBLIC "-//W3C//DTD SVG 1.1//EN" "http://www.w3.org/Graphics/SVG/1.1/DTD/svg11.dtd"><svg t="1743497108952" class="icon" viewBox="0 0 1111 1024" version="1.1" xmlns="http://www.w3.org/2000/svg" p-id="1766" xmlns:xlink="http://www.w3.org/1999/xlink" width="216.9921875" height="200"><path d="M1108.851512 528.586927c-1.726439-63.719024-41.131707-91.523122-78.04878-121.756098-14.926049-12.222439-46.373463-32.021854-49.95122-43.707317-6.961951-22.712195 6.537366-52.97639 6.243903-74.926829-1.233171-92.184976-45.305756-149.447805-134.243903-152.97561-9.475122-5.182439-40.476098-5.182439-49.951219 0-124.756293 26.567805-120.67278-120.369951-231.024391-128-9.6-4.277073-45.068488-7.689366-49.951219 3.121951-103.879805 11.185951-100.370732 153.927805-224.780488 124.878049-9.475122-5.182439-40.476098-5.182439-49.951219 0-69.650732 6.315707-110.922927 41.013073-128 99.902439 0 0-12.684488 61.190244 1.592195 130.653659 0 0-125.109073 78.314146-118.634147 165.85678 0 0-4.392585 94.826146 137.365854 165.070049 0 0-44.606439 123.307707 29.842732 202.402341 0 0 35.527805 48.714927 154.115122 31.381854 0 0 86.902634-16.805463 109.505561 16.493268 0 0 51.740098 66.600585 108.715707 72.064 0 0 21.753756 6.680976 50.372683-2.27278a14.638829 14.638829 0 0 1 3.768195-1.832585c11.732293-3.777561 21.847415-11.832195 31.310049-19.574635 3.933659-4.408195 7.573854-9.134829 11.426341-13.486829a382.417171 382.417171 0 0 1 29.152781-29.430634c0.380878-0.343415 0.761756-0.661854 1.139512-0.99278 11.404488-13.980098 33.270634-36.439415 53.90361-33.145757 29.658537 4.736 45.820878 7.857951 45.820878 7.857952 18.856585-1.164488 31.350634 9.153561 46.798049 11.395122 6.4 5.182439 34.182244 5.182439 40.585365 0 76.391024-7.898537 116.227122-52.355122 118.634147-134.243903 5.166829-3.365463 5.166829-27.854049 0-31.219512-0.833561-25.181659-1.354927-50.675512-9.365854-68.682927 64.49639-48.593171 146.222829-78.382829 143.609756-174.829268" fill="#FFBF39" p-id="1767"></path><path d="M378.355512 196.248976s-268.194341 98.179122-216.663414 406.446829c0 0 17.389268 189.502439 212.764097 233.943415 0 0 48.487024 9.022439 81.779512 10.492878h158.198634s95.409951-1.660878 146.428879-27.435708c0 0 98.397659-27.273366 155.398243-166.228292 0 0 52.19278-127.00722-16.627512-283.891513 0 0-32.967805-112.462049-208.889756-178.057365 0 0-208.01561-34.619317-312.388683 4.729756" fill="#FFBF39" p-id="1768"></path><path d="M981.313561 225.507902c-4.583024-16.452683-19.446634-39.645659-29.833366-48.64 2.52878 5.15122 11.532488 23.717463 12.597073 29.380683 0.811707 0.952195 1.42361 2.094829 1.626537 3.652683-7.146146 48.309073-13.767805 102.315707-68.682927 93.658537-14.632585-2.310244-23.795512-15.525463-37.463415-24.97561 45.602341 43.894634 84.33639 94.651317 106.146342 162.341464 1.205073-7.186732 3.349854-12.434732 3.85561-16.652488l0.009365 0.006244 0.03122-0.249756 0.024976-0.299708 1.585951-15.703414c2.706732-8.145171 1.988683-19.715122 6.631024-25.927805 0.571317-7.667512 6.712195-75.345171 8.460488-82.731708-0.786732-37.578927 4.611122-39.399024-4.988878-73.859122M1076.317659 448.552585c0 1.03961 1.754537 8.910049 1.754536 9.952781 17.451707 17.142634 8.391805 58.414829 6.162732 86.930732-0.234146 0.078049-0.421463 0.171707-0.643122 0.252878-0.390244 4.676683-3.502829 9.596878-5.869268 13.28078-2.597463 4.049171-5.338537 7.970341-8.73522 10.926829-0.124878 0.171707-0.227902 0.346537-0.362146 0.515122-20.604878 25.827902-58.211902 32.65561-84.292683 53.073171v-15.609756c-5.900488 29.486829-23.820488 72.853854-32.312195 99.746341 87.414634-5.987902 224.362146-166.493659 124.297366-259.068878" fill="#BB8E49" p-id="1769"></path><path d="M748.353561 587.061073c-102.858927-115.637073-196.754732-108.550244-196.754732-108.550244-132.395707 0.318439-186.552195 111.84078-186.552195 111.840781-150.883902-5.444683-218.48039 82.232195-218.48039 82.232195L207.609756 814.829268l157.658537 81.170732 480.780487 15.609756 85.853659-31.219512s19.171902-105.977756 20.292683-109.268293c1.12078-3.287415 4.058537-105.116098 4.058537-105.116097-81.507902-90.140098-207.900098-78.94478-207.900098-78.944781z" fill="#FFFFFF" p-id="1770"></path><path d="M959.719024 686.142439c-1.230049-4.963902 2.909659-9.116098 4.533074-13.380683-5.928585-6.11278-14.242341-15.434927-20.985757-22.262634-0.359024-0.124878-0.727415-0.237268-1.061463-0.443317a19.512195 19.512195 0 0 1-3.340488-2.535025c-0.349659 1.342439-0.805463 2.67239-1.39239 3.980488-0.071805 5.613268-4.785951 11.176585-8.666537 17.664-8.195122 23.283512-25.865366 35.974244-38.262634 54.55922-2.122927 0.218537-4.120976 0.577561-3.477853 3.896195-14.43278 16.318439-31.400585 29.770927-48.702439 42.870634-0.786732 0.199805-1.467317 0.515122-2.107317 0.874146-0.839805 0.755512-1.738927 1.467317-2.663025 2.154147-3.465366 3.765073-5.332293 9.325268-12.288 9.187902-4.714146 3.793171-9.553171 7.395902-15.225756 9.534439-16.221659 11.885268-36.951415 18.71922-58.168195 25.006829-18.550634 5.157463-34.997073 12.665756-58.861268 11.869659-1.979317 0.337171-3.964878 0.668098-5.950439 0.942829-8.148293 3.47161-24.142049 4.51122-37.057561 3.143805l-2.310244 0.152976c-11.282732 0.79922-23.552 2.041756-35.518439 2.154146-26.136976 5.978537-57.553171 6.693463-82.809756-0.124878-8.675902-0.227902-17.339317-0.961561-26.062049-0.858537-11.260878 0.131122-22.328195 0.524488-33.464195-0.774243-19.262439 0.330927-39.19922-1.261268-51.908683-4.810927-26.280585-0.427707-46.804293-7.317854-66.088586-15.584781-15.188293-1.173854-23.736195-9.784195-34.791024-15.591024-27.229659-8.46361-45.118439-27.401366-66.091707-42.873756-17.158244-14.348488-34.931512-28.013268-45.037269-50.272781-0.165463-0.128-0.327805-0.259122-0.49639-0.384h-3.171902c-8.413659-12.372293-25.294049-32.955317-27.55122-44.331707a49.701463 49.701463 0 0 1-3.365463-6.858927c-8.67278 5.51961-16.67122 14.36722-24.654049 18.962732 45.767805 124.097561 140.394146 202.20878 281.684293 219.292097h17.395512c39.689366 1.373659 98.897171 7.845463 141.443122 2.647415 16.227902 0 33.642146-2.647415 49.882536-2.647415 7.483317 2.647415 25.82478 1.685854 34.781659 0h10.439805c146.360195-13.830244 226.485073-81.529756 282.155707-203.154731-0.01561-0.09678-0.062439-0.181073-0.071805-0.274732a6.462439 6.462439 0 0 1-0.714927-1.726439" fill="#CDBBB5" p-id="1771"></path><path d="M574.001951 666.005854c-10.505366 5.188683-41.490732 3.306146-55.015024-0.049952-41.081756-9.905951-64.54322-32.346537-87.726829-60.150634-1.398634 24.28878 11.229659 32.359024 16.177951 50.304 1.192585 1.201951 2.19161 4.199024 3.456 7.867317 3.078244 3.42478 6.250146 6.755902 9.640585 9.865366 9.156683 8.404293 20.392585 13.293268 31.541073 18.385171 13.908293 1.735805 28.824976 3.534049 44.003903 4.579902 11.101659-0.134244 22.044098-0.674341 32.27161-0.877268 2.060488-0.337171 4.108488-0.643122 6.184585-1.03961 12.977951-2.481951 24.394927 0.237268 36.764097-6.602926 7.808-4.317659 15.241366-9.066146 21.822439-14.76683 1.080195-0.977171 2.163512-1.966829 3.237464-2.972097 0.174829-0.171707 0.359024-0.334049 0.533854-0.508878 0.359024-0.334049 0.708683-0.674341 1.061463-1.011513a70.034732 70.034732 0 0 0 7.064976-8.391804c2.737951-3.827512 5.166829-7.826732 7.564487-11.841561 7.745561-19.992976 10.471024-33.841951 16.533854-55.83922-22.506146 33.692098-49.592195 62.385951-95.11961 73.050537" fill="#CDBBB5" p-id="1772"></path><path d="M960.046829 679.445854c-33.451707 106.489756-129.810732 198.49678-278.871414 209.176975-82.338341 5.900488-179.774439 7.658146-265.596878 0-142.148683-12.675122-231.405268-109.402537-272.858537-216.616585-23.673756 81.688976-30.807415 188.609561 27.185951 229.900488 84.164683 59.91961 136.710244 18.332098 225.173854 27.941463 51.668293 20.46439 80.293463 78.73561 138.517854 89.899707 106.951805 20.514341 118.531122-91.036098 186.826926-99.971122 17.05522-2.229073 24.616585 4.539317 42.611513 7.255415 27.738537 4.183415 49.785756 15.250732 75.23278 15.734634 141.265171 2.669268 160.62439-153.974634 121.777951-263.320975M939.014244 648.30439s33.086439-48.265366 48.546341-104.388683c0 0-1.027122 71.867317-9.959024 109.330732l-8.928781 24.97561-29.658536-29.914537z" fill="#BB8E49" p-id="1773"></path><path d="M120.785171 365.777171s-81.26439 50.71922-107.882147 116.870244c0 0 51.437268-64.727415 111.097756-101.15122l-3.215609-15.719024zM1079.483317 458.86439c-1.170732-2.363317-2.500683-4.851512-2.965854-7.473951a39.380293 39.380293 0 0 1-0.259122-1.779512c-3.69639-5.460293-8.085854-11.026732-12.990439-16.586927-5.394732-2.341463-9.178537-7.555122-13.898926-11.55122-7.249171-6.134634-14.49522-12.622049-21.93483-18.54439-14.154927-11.285854-38.206439-21.416585-46.211122-40.332488l-1.567219-1.092682-1.592195 19.331121c52.526829 32.065561 96.41522 76.434732 106.168195 86.590439-0.786732-2.650537-3.827512-6.693463-4.75161-8.56039" fill="#FFFFFF" p-id="1774"></path><path d="M202.727024 305.570341c-63.400585 2.903415-65.301854-63.828293-59.722926-112.390243 0.924098-6.36878 5.894244-8.600976 6.818341-14.966635-50.606829 55.651902-34.825366 140.725073-29.090341 187.31083 0.739902-0.437073 2.019902 13.502439 2.806634 13.112195 4.096 26.155707 7.960976 29.655415 10.040195 61.177756 28.035122-85.582049 81.976195-145.43922 147.730732-193.560976-29.127805 17.589073-60.81561 48.977171-78.582635 59.317073" fill="#BB8E49" p-id="1775"></path><path d="M420.97639 546.653659s-20.948293 11.707317 11.189073 62.957268c0 0 24.778927 57.07239 111.747122 62.738732 0 0 72.232585 5.238634 121.968391-68.682927l5.322926-12.487805s11.591805-32.293463-1.030243-44.525268c0 0-42.108878-49.030244-125.009171-43.722927 0 0-98.310244 4.439415-124.19122 43.722927" fill="#120B07" p-id="1776"></path><path d="M623.438049 547.23122c0 7.542634-34.069854 13.658537-76.097561 13.658536s-76.097561-6.119024-76.097561-13.658536c0-7.542634 34.069854-13.658537 76.097561-13.658537s76.097561 6.115902 76.097561 13.658537M151.758049 174.420293s55.414634-38.787122 116.292683-33.323708c0 0 109.79278 70.762146 181.597658-77.00917 0 0 39.770537-57.490732 95.250732-56.195122 0 0 72.298146 5.207415 105.596878 47.872 0 0 19.031415 134.243902 190.06439 84.292683 0 0 80.452683 0.468293 110.657561 33.014634 0 0-30.257951-51.830634-148.583024-41.64683 0 0-60.066341 19.612098-106.408586-34.503804 0 0-55.149268-84.970146-119.124292-92.981074 0 0-68.089756-27.310829-145.358049 61.908293 0 0-49.061463 76.940488-107.463805 69.400976 0 0-112.942829-27.928976-172.519024 39.171122" fill="#FFFFFF" p-id="1777"></path><path d="M953.319024 878.11122a33.526634 33.526634 0 0 1-3.818146 5.101268c-7.795512 8.398049-17.988683 13.621073-29.143415 17.333073-10.280585 6.375024-21.085659 11.601171-33.660878 13.489951-22.265756 3.340488-46.30478 6.612293-68.723512 4.124098-15.450537-1.717073-30.454634-5.863024-45.549268-9.209756-9.734244-1.701463-19.47161-2.965854-29.221464-3.022049-74.046439-0.390244-110.317268 81.052098-181.706926 88.881951-81.404878 8.92878-123.969561-88.029659-202.901854-84.426927-40.835122 1.863805-80.99278 14.360976-121.912195 5.80683-29.571122-6.181463-56.956878-21.997268-72.928781-48.327805-17.763902-29.290146-22.403122-65.395512-25.484487-98.956488-2.78478-30.292293-3.08761-62.220488 6.805853-91.214049-0.764878-1.895024-1.548488-3.783805-2.279024-5.681951-23.676878 81.685854-30.810537 188.606439 27.182829 229.900488 84.167805 59.916488 136.713366 18.328976 225.173854 27.935219 51.671415 20.467512 80.296585 78.73561 138.520975 89.902829 106.948683 20.514341 118.528-91.036098 186.823805-99.964878 17.05522-2.235317 24.616585 4.533073 42.60839 7.249171 27.741659 4.183415 49.788878 15.253854 75.239025 15.734634 60.509659 1.142634 98.641171-26.958049 119.427122-68.042927-1.448585 1.142634-2.92839 2.269659-4.455025 3.384196" fill="#9B784B" p-id="1778"></path><path d="M177.048976 551.720585l64.577561 50.987708 115.56839-6.79961s164.601756-254.844878 380.681366-11.947707l10.205658 11.947707 129.155122-2.113561 54.387512-52.267707-65.876292-159.753366-629.216781-3.399805-59.482536 173.346341z" fill="#383838" p-id="1779"></path><path d="M377.834146 449.664c-11.207805-10.858146-26.91122-19.406049-48.936585-21.045073 0 0-30.660683-0.615024-53.126244 21.041951h102.062829zM356.211512 486.528c3.846244 4.873366 7.186732 11.264 9.300293 19.705756h39.539512s-0.858537-8.41678-4.695415-19.702634h-44.14439zM384.280976 456.732098H269.399415c-4.776585 6.134634-8.888195 13.624195-11.854049 22.727804h47.943805c4.898341-4.242732 11.707317-7.530146 21.213658-8.369951 0 0 11.52 0.006244 22.384391 8.366829h48.590048c-3.072-7.333463-7.399024-15.297561-13.396292-22.724682M255.544195 486.528c-1.420488 5.941073-2.397659 12.478439-2.797268 19.705756h40.273171s0.234146-10.243122 6.346926-19.702634H255.544195zM832.202927 457.147317h-115.515317c-4.72039 6.156488-8.782049 13.633561-11.704195 22.727805h47.634731c4.932683-4.439415 11.866537-7.914146 21.672586-8.785171 0 0 11.910244 0.009366 22.915122 8.785171h48.234146c-3.025171-7.31161-7.305366-15.278829-13.237073-22.727805M825.837268 450.07922c-11.23278-11.051707-27.045463-19.799415-49.351805-21.460293 0 0-31.057171-0.62439-53.557073 21.460293h102.908878zM703.047805 486.946341a111.141463 111.141463 0 0 0-2.709854 19.290537h40.273171s0.231024-9.946537 6.087805-19.293658h-43.651122zM804.120976 486.946341c3.708878 4.820293 6.924488 11.089171 8.975609 19.290537h39.542635s-0.842927-8.213854-4.554927-19.293658H804.120976z" fill="#3F8CF7" p-id="1780"></path><path d="M145.52039 689.670244l-1.301853-11.510634-1.498537-6.150244 25.169171-20.470634S127.562927 586.801951 131.718244 541.852098c0 0-3.121951 38.037854-0.530732 79.491122-0.109268-0.446439-0.209171-0.905366-0.321561-1.351805 1.180098 12.653268 0.474537 23.252293-9.365853 23.867317-29.218341-21.500878-52.932683-48.999024-81.152-71.589464l-2.865952-4.764097 0.006244-0.17483c-28.241171-34.091707-29.636683-83.605854-3.402927-117.831804 0.106146-0.187317 0.24039-0.349659 0.343415-0.536976a207.578537 207.578537 0 0 1 4.23961-8.616585C21.23239 459.569951 6.406244 480.268488 2.865951 510.876098c-4.352 37.607024 6.524878 68.558049 24.891317 94.360975 0.796098 1.117659 1.607805 2.229073 2.435122 3.328a177.63278 177.63278 0 0 0 7.246049 8.981854c36.302049 48.508878 93.205854 74.811317 99.377951 77.564878 0.084293-0.718049 0.221659-1.417366 0.39961-2.113561l9.259707 5.419707-0.093658-0.490146c0.999024 2.194732 2.03239 4.327024 3.146927 6.312585l-4.008586-14.570146zM230.846439 367.51922l5.881756 11.12039 629.216781 3.396683 5.978536-20.564293H227.530927z" fill="#BB8E49" p-id="1781"></path><path d="M227.527805 361.472l-50.282146 190.513951 59.482536-173.346341M871.923512 361.472l59.894634 180.32078-65.87317-159.753365z" fill="#BB8E49" p-id="1782"></path></svg>